<?xml version="1.0" encoding="UTF-8"?>
<svg version="1.1" xmlns="http://www.w3.org/2000/svg" width="500" height="500">
<path d="M0 0 C0 -9.24 0 -18.48 0 -28 C13.86 -28 27.72 -28 42 -28 C42.02254705 -11.71929388 42.04097919 4.56139898 42.05181217 20.84211636 C42.05697512 28.40101619 42.0640178 35.95990565 42.07543945 43.51879883 C42.08538632 50.10479666 42.09185343 56.69078698 42.09408849 63.27679211 C42.0953956 66.76613071 42.09848142 70.25544784 42.10573006 73.74477959 C42.11374398 77.63381232 42.11399114 81.52282378 42.11352539 85.41186523 C42.11712067 86.57711227 42.12071594 87.74235931 42.12442017 88.94291687 C42.1230455 89.99606079 42.12167084 91.04920471 42.12025452 92.13426208 C42.12163721 93.51556887 42.12163721 93.51556887 42.12304783 94.92478085 C42 97 42 97 41 98 C37.97022196 98.08871273 34.96332978 98.1151935 31.93359375 98.09765625 C31.02497086 98.0962413 30.11634796 98.09482635 29.18019104 98.09336853 C26.26592779 98.08775193 23.35174019 98.07519665 20.4375 98.0625 C18.46679798 98.05748714 16.49609476 98.05292386 14.52539062 98.04882812 C9.68356441 98.03777711 4.84179505 98.02050138 0 98 C-0.08044556 97.36829895 -0.16089111 96.7365979 -0.24377441 96.08575439 C-3.61180909 69.78416957 -11.30422963 50.13290169 -30 31 C-30.66 30.67 -31.32 30.34 -32 30 C-32 29.34 -32 28.68 -32 28 C-32.56589844 27.72800781 -33.13179687 27.45601562 -33.71484375 27.17578125 C-36.08264168 25.95747839 -38.30409678 24.59760679 -40.5625 23.1875 C-52.49491083 16.0280535 -65.93856434 10.52484363 -80 10 C-81.16917969 9.9484375 -82.33835937 9.896875 -83.54296875 9.84375 C-106.4337544 9.16006189 -127.30044905 16.35087266 -145 31 C-146.010625 31.804375 -147.02125 32.60875 -148.0625 33.4375 C-148.701875 33.953125 -149.34125 34.46875 -150 35 C-155.94135341 30.07668748 -161.49580435 24.78812484 -166.98242188 19.36767578 C-168.00322465 18.36362363 -169.02938622 17.36499369 -170.06054688 16.37158203 C-171.56295013 14.923648 -173.04849524 13.46020309 -174.53125 11.9921875 C-175.41361328 11.12964355 -176.29597656 10.26709961 -177.20507812 9.37841797 C-179 7 -179 7 -178.90014648 4.82006836 C-171.27629623 -10.59512113 -144.13895144 -21.86948776 -128.80859375 -27.0859375 C-81.81881026 -41.56946288 -37.84479376 -29.70612843 0 0 Z " fill="#AB84F2" transform="translate(338,151)"/>
<path d="M0 0 C13.86 0 27.72 0 42 0 C42.66 5.94 43.32 11.88 44 18 C48.77137974 36.24351076 56.275765 53.64156205 71.3359375 65.73828125 C72.21507812 66.48464844 73.09421875 67.23101562 74 68 C74 68.66 74 69.32 74 70 C74.56589844 70.27199219 75.13179688 70.54398437 75.71484375 70.82421875 C78.08264168 72.04252161 80.30409678 73.40239321 82.5625 74.8125 C94.81463041 82.1530621 108.58072403 87.43405572 123 88 C123.98226562 88.03996094 124.96453125 88.07992187 125.9765625 88.12109375 C148.17821565 88.57148528 170.08362109 81.75155512 186.765625 66.8828125 C188.8087214 65.16118232 190.60842213 64.13427328 193 63 C197.02183146 66.89843911 201.02711435 70.81287016 205.01782227 74.74316406 C206.37828014 76.07844331 207.74318691 77.40920518 209.11254883 78.73535156 C211.07773993 80.64004239 213.02647032 82.5602932 214.97265625 84.484375 C215.59028336 85.07619568 216.20791046 85.66801636 216.84425354 86.277771 C218.54321289 87.97558594 218.54321289 87.97558594 221 91 C220.32542868 97.03941157 214.42206057 100.44121022 210 104 C206.0998228 106.83744435 202.09305256 109.45031503 198 112 C197.01902344 112.62003906 196.03804687 113.24007812 195.02734375 113.87890625 C166.02222749 131.57240932 131.01381207 134.72386134 98.3125 127.625 C79.29732036 122.94077282 58.48065215 113.71614567 44 100 C44 99.34 44 98.68 44 98 C43.34 98 42.68 98 42 98 C42.00523682 98.74161377 42.01047363 99.48322754 42.01586914 100.24731445 C42.03663614 103.60236771 42.0496593 106.95740744 42.0625 110.3125 C42.07087891 111.47974609 42.07925781 112.64699219 42.08789062 113.84960938 C42.09111328 114.96787109 42.09433594 116.08613281 42.09765625 117.23828125 C42.10289307 118.26993408 42.10812988 119.30158691 42.11352539 120.36450195 C42 123 42 123 41 126 C27.47 126 13.94 126 0 126 C0 84.42 0 42.84 0 0 Z " fill="#30B8FD" transform="translate(120,251)"/>
<path d="M0 0 C13.86 0 27.72 0 42 0 C42.495 8.415 42.495 8.415 43 17 C42.34 16.67 41.68 16.34 41 16 C39.82430474 11.17964943 40 7.10343073 40 2 C27.46 2 14.92 2 2 2 C2.01160156 5.98449219 2.02320312 9.96898437 2.03515625 14.07421875 C2.04295497 17.93318604 2.0490271 21.79215245 2.05493164 25.65112305 C2.05939552 28.33310101 2.06635359 31.01505529 2.07543945 33.69702148 C2.08756853 37.55192746 2.09324287 41.40679718 2.09765625 45.26171875 C2.10281754 46.46084396 2.10797882 47.65996918 2.11329651 48.89543152 C2.11337204 50.01621597 2.11344757 51.13700043 2.11352539 52.29174805 C2.115746 53.27547897 2.11796661 54.2592099 2.12025452 55.27275085 C2.00226045 57.9487352 1.59948333 60.39334338 1 63 C0.67 63 0.34 63 0 63 C0 42.21 0 21.42 0 0 Z " fill="#7DCFF4" transform="translate(120,251)"/>
<path d="M0 0 C0.33 0 0.66 0 1 0 C1.02332902 16.28070303 1.04097919 32.56140067 1.05181217 48.84211636 C1.05697512 56.40101619 1.0640178 63.95990565 1.07543945 71.51879883 C1.08538632 78.10479666 1.09185343 84.69078698 1.09408849 91.27679211 C1.0953956 94.76613071 1.09848142 98.25544784 1.10573006 101.74477959 C1.11374398 105.63381232 1.11399114 109.52282378 1.11352539 113.41186523 C1.11712067 114.57711227 1.12071594 115.74235931 1.12442017 116.94291687 C1.1230455 117.99606079 1.12167084 119.04920471 1.12025452 120.13426208 C1.12117631 121.05513328 1.1220981 121.97600447 1.12304783 122.92478085 C1 125 1 125 0 126 C-3.02977804 126.08871273 -6.03667022 126.1151935 -9.06640625 126.09765625 C-9.97502914 126.0962413 -10.88365204 126.09482635 -11.81980896 126.09336853 C-14.73407221 126.08775193 -17.64825981 126.07519665 -20.5625 126.0625 C-22.53320202 126.05748714 -24.50390524 126.05292386 -26.47460938 126.04882812 C-31.31643559 126.03777711 -36.15820495 126.02050138 -41 126 C-41 121.05 -41 116.1 -41 111 C-40.67 111 -40.34 111 -40 111 C-39.67 115.29 -39.34 119.58 -39 124 C-26.13 124 -13.26 124 0 124 C0 83.08 0 42.16 0 0 Z " fill="#CEBBF2" transform="translate(379,123)"/>
<path d="M0 0 C-13.27889872 7.32180712 -27.89309419 12.94844489 -43 15 C-43.78246094 15.10957031 -44.56492187 15.21914063 -45.37109375 15.33203125 C-59.60796648 16.95724503 -73.89811921 16.36085299 -88 14 C-88 13.67 -88 13.34 -88 13 C-87.10917725 13.00523682 -86.21835449 13.01047363 -85.30053711 13.01586914 C-81.91771771 13.03316081 -78.5349469 13.04556917 -75.15209961 13.05493164 C-73.70254768 13.05988546 -72.25300054 13.06665038 -70.8034668 13.07543945 C-49.20477841 13.89522326 -49.20477841 13.89522326 -28.8125 8.375 C-25.63242987 6.82029905 -23.4939931 6.75042906 -20 7 C-20 6.34 -20 5.68 -20 5 C-17.69 5 -15.38 5 -13 5 C-13 4.34 -13 3.68 -13 3 C-11.68 3 -10.36 3 -9 3 C-9 2.34 -9 1.68 -9 1 C-3.375 -1.125 -3.375 -1.125 0 0 Z " fill="#70C9F1" transform="translate(313,366)"/>
<path d="M0 0 C0 0.66 0 1.32 0 2 C-0.7425 2.2475 -1.485 2.495 -2.25 2.75 C-5.20124062 4.09147301 -6.84814974 5.60905526 -9 8 C-9.66 7.34 -10.32 6.68 -11 6 C-13.06497945 6.01953284 -13.06497945 6.01953284 -15.40234375 6.49609375 C-16.28792969 6.64336914 -17.17351562 6.79064453 -18.0859375 6.94238281 C-19.02695312 7.10577148 -19.96796875 7.26916016 -20.9375 7.4375 C-30.50398761 8.96179488 -38.51737989 8.93659143 -48 7 C-48 6.34 -48 5.68 -48 5 C-47.4016333 5.01047363 -46.8032666 5.02094727 -46.18676758 5.03173828 C-31.60643903 5.25297058 -18.22507282 4.75031436 -4.14453125 0.5859375 C-2 0 -2 0 0 0 Z " fill="#5CC0F1" transform="translate(282,334)"/>
<path d="M0 0 C3.21524305 1.40844718 5.32183868 3.10344786 7.75 5.625 C8.67039062 6.57246094 8.67039062 6.57246094 9.609375 7.5390625 C10.29773438 8.26222656 10.29773438 8.26222656 11 9 C10.01 9.33 9.02 9.66 8 10 C7.67 10.66 7.34 11.32 7 12 C7 11.34 7 10.68 7 10 C5.02 10.66 3.04 11.32 1 12 C-1 9 -1 9 -1 6 C-0.67 5.67 -0.34 5.34 0 5 C-1.32 4.67 -2.64 4.34 -4 4 C-2.68 2.68 -1.36 1.36 0 0 Z " fill="#30B7FB" transform="translate(311,314)"/>
<path d="M0 0 C3.69813597 1.54805692 7.01642401 2.44415219 11 3 C11 3.66 11 4.32 11 5 C11.5775 5.12375 12.155 5.2475 12.75 5.375 C15.02335767 6.00648824 16.9253529 6.88858191 19 8 C19 8.66 19 9.32 19 10 C15.19015366 9.04753842 11.88234413 8.01482809 8.4375 6.125 C0.00109545 1.74266534 -9.56994125 -0.34965112 -19 -1 C-19 -1.33 -19 -1.66 -19 -2 C-11.81709569 -3.24463686 -6.70593962 -2.84534888 0 0 Z " fill="#C7B1EE" transform="translate(277,162)"/>
<path d="M0 0 C3.02122674 1.45184809 5.84168993 3.10610678 8.6875 4.875 C13.30546451 7.6745981 18.00890768 9.95051764 23 12 C21.02 12.99 21.02 12.99 19 14 C19 13.34 19 12.68 19 12 C17.948125 11.8453125 17.948125 11.8453125 16.875 11.6875 C13.56485389 10.89594332 11.00902091 9.59301107 8 8 C6.54325065 7.26767393 5.0848749 6.53857535 3.625 5.8125 C2.41666667 5.20833333 1.20833333 4.60416667 0 4 C0 2.68 0 1.36 0 0 Z " fill="#64C5F2" transform="translate(194,321)"/>
<path d="M0 0 C0 0.66 0 1.32 0 2 C-0.7425 2.2475 -1.485 2.495 -2.25 2.75 C-5.20124062 4.09147301 -6.84814974 5.60905526 -9 8 C-9.66 7.34 -10.32 6.68 -11 6 C-13.58064129 5.85502015 -16.04943884 5.81322455 -18.625 5.875 C-19.33140625 5.88402344 -20.0378125 5.89304687 -20.765625 5.90234375 C-22.51056098 5.92592397 -24.25532295 5.96179539 -26 6 C-26 5.67 -26 5.34 -26 5 C-25.18917969 4.89042969 -24.37835938 4.78085937 -23.54296875 4.66796875 C-16.91646526 3.71912134 -10.56554634 2.48497857 -4.14453125 0.5859375 C-2 0 -2 0 0 0 Z " fill="#8ED4F4" transform="translate(282,334)"/>
<path d="M0 0 C0 0.66 0 1.32 0 2 C-0.99 2 -1.98 2 -3 2 C-3 2.66 -3 3.32 -3 4 C-8.34438759 8.87282398 -14.12402737 11.21224712 -21 13 C-17.59402396 9.19229346 -13.73008819 6.81132582 -9.375 4.25 C-8.694375 3.83878906 -8.01375 3.42757812 -7.3125 3.00390625 C-2.26274398 0 -2.26274398 0 0 0 Z " fill="#BEA6ED" transform="translate(194,131)"/>
<path d="M0 0 C3.96 0 7.92 0 12 0 C12 0.99 12 1.98 12 3 C16.29 3.33 20.58 3.66 25 4 C24.34 4.66 23.68 5.32 23 6 C15.00869084 5.73362303 7.5961162 3.32313653 0 1 C0 0.67 0 0.34 0 0 Z " fill="#6AC7F4" transform="translate(202,373)"/>
<path d="M0 0 C1.05638672 0.00451172 2.11277344 0.00902344 3.20117188 0.01367188 C5.78000908 0.02534082 8.35872294 0.04171115 10.9375 0.0625 C10.9375 0.3925 10.9375 0.7225 10.9375 1.0625 C10.08986084 1.10008423 10.08986084 1.10008423 9.22509766 1.13842773 C6.67066258 1.25429956 4.1166045 1.37706537 1.5625 1.5 C0.67304688 1.53931641 -0.21640625 1.57863281 -1.1328125 1.61914062 C-1.98359375 1.66103516 -2.834375 1.70292969 -3.7109375 1.74609375 C-4.49645996 1.78275146 -5.28198242 1.81940918 -6.09130859 1.85717773 C-8.13773496 1.953391 -8.13773496 1.953391 -10.0625 3.0625 C-12.10305005 3.13315617 -14.14584257 3.14671976 -16.1875 3.125 C-17.28320312 3.11597656 -18.37890625 3.10695313 -19.5078125 3.09765625 C-20.77238281 3.08025391 -20.77238281 3.08025391 -22.0625 3.0625 C-21.7325 2.4025 -21.4025 1.7425 -21.0625 1.0625 C-14.04902663 -0.08123566 -7.09086076 -0.05815848 0 0 Z " fill="#C6B0F0" transform="translate(251.0625,117.9375)"/>
<path d="M0 0 C6.49142565 0.42335385 11.33492989 2.91099799 17 6 C13.76746204 8.15502531 12.74849077 8.46856135 9 8 C7.1875 6.6875 7.1875 6.6875 6 5 C6 4.01 6 3.02 6 2 C4.35 2 2.7 2 1 2 C0.67 1.34 0.34 0.68 0 0 Z " fill="#BC9FE9" transform="translate(291,125)"/>
<path d="M0 0 C1.65 0.33 3.3 0.66 5 1 C0.75259665 4.45101522 -3.61105071 7.73279209 -8 11 C-8.66 10.67 -9.32 10.34 -10 10 C-9.67 9.01 -9.34 8.02 -9 7 C-7.35 6.67 -5.7 6.34 -4 6 C-4 5.34 -4 4.68 -4 4 C-3.01 4 -2.02 4 -1 4 C-0.67 2.68 -0.34 1.36 0 0 Z " fill="#76CAF2" transform="translate(325,353)"/>
<path d="M0 0 C0.66 0.66 1.32 1.32 2 2 C-0.60259124 2.53010201 -3.206557 3.04937795 -5.8125 3.5625 C-6.91948242 3.78969727 -6.91948242 3.78969727 -8.04882812 4.02148438 C-13.66015625 5.11328125 -13.66015625 5.11328125 -17 4 C-6.36085627 -0.79510703 -6.36085627 -0.79510703 0 0 Z " fill="#C5AEEB" transform="translate(240,159)"/>
<path d="M0 0 C0.66 0.33 1.32 0.66 2 1 C-1.24635735 4.9226818 -5.0527242 6.96609666 -10 8 C-12.25 7.57421875 -12.25 7.57421875 -14 7 C-11.71296692 5.80274117 -9.42115138 4.61702982 -7.125 3.4375 C-6.14853516 2.92413086 -6.14853516 2.92413086 -5.15234375 2.40039062 C-3.46470143 1.53917109 -1.73420407 0.76313297 0 0 Z " fill="#76C7F1" transform="translate(296,326)"/>
<path d="M0 0 C-1.32 0.33 -2.64 0.66 -4 1 C-4 1.66 -4 2.32 -4 3 C-7.96 3.66 -11.92 4.32 -16 5 C-15 3 -15 3 -12.3828125 1.89453125 C-10.77019531 1.35892578 -10.77019531 1.35892578 -9.125 0.8125 C-8.05507812 0.44769531 -6.98515625 0.08289063 -5.8828125 -0.29296875 C-3 -1 -3 -1 0 0 Z " fill="#C2AAED" transform="translate(213,125)"/>
<path d="M0 0 C1.14926266 0.95421808 2.29430541 1.91352045 3.4375 2.875 C4.07558594 3.40867187 4.71367187 3.94234375 5.37109375 4.4921875 C7 6 7 6 8 8 C6.02 8 4.04 8 2 8 C2 7.34 2 6.68 2 6 C1.34 6 0.68 6 0 6 C0 4.02 0 2.04 0 0 Z " fill="#5FC5F6" transform="translate(322,324)"/>
<path d="M0 0 C1.65 0 3.3 0 5 0 C5 0.66 5 1.32 5 2 C5.86625 2.185625 5.86625 2.185625 6.75 2.375 C9.02335767 3.00648824 10.9253529 3.88858191 13 5 C13 5.66 13 6.32 13 7 C8.31479085 5.78184562 4.29456388 4.30440013 0 2 C0 1.34 0 0.68 0 0 Z " fill="#BCA3E7" transform="translate(283,165)"/>
<path d="M0 0 C2.2477975 2.05233685 3.0022242 3.00667261 4 6 C4.06937062 8.22818441 4.08457084 10.45834524 4.0625 12.6875 C4.05347656 13.86699219 4.04445313 15.04648438 4.03515625 16.26171875 C4.02355469 17.16535156 4.01195312 18.06898438 4 19 C3.67 19 3.34 19 3 19 C2.49666458 16.39643759 1.99720622 13.79223349 1.5 11.1875 C1.35691406 10.44951172 1.21382813 9.71152344 1.06640625 8.95117188 C0.49073719 5.92205609 0 3.090804 0 0 Z " fill="#CAB7EE" transform="translate(334,221)"/>
<path d="M0 0 C-1.485 2.475 -1.485 2.475 -3 5 C-6.3 4.34 -9.6 3.68 -13 3 C-8.21852189 0.60926095 -5.27819716 -0.11729327 0 0 Z " fill="#BB9DEB" transform="translate(226,121)"/>
<path d="M0 0 C-1.95330868 1.03041513 -3.91281528 2.0490893 -5.875 3.0625 C-6.96554687 3.63097656 -8.05609375 4.19945312 -9.1796875 4.78515625 C-10.11039062 5.18605469 -11.04109375 5.58695312 -12 6 C-12.66 5.67 -13.32 5.34 -14 5 C-13.67 4.34 -13.34 3.68 -13 3 C-11.68 3 -10.36 3 -9 3 C-9 2.34 -9 1.68 -9 1 C-3.375 -1.125 -3.375 -1.125 0 0 Z " fill="#82D0F4" transform="translate(313,366)"/>
<path d="M0 0 C0 0.66 0 1.32 0 2 C-0.7425 2.2475 -1.485 2.495 -2.25 2.75 C-5.20124062 4.09147301 -6.84814974 5.60905526 -9 8 C-9.66 7.34 -10.32 6.68 -11 6 C-10.01 5.67 -9.02 5.34 -8 5 C-8 4.01 -8 3.02 -8 2 C-2.25 0 -2.25 0 0 0 Z " fill="#61C3F2" transform="translate(282,334)"/>
<path d="M0 0 C3.63 0.66 7.26 1.32 11 2 C6.64467851 4.17766075 5.53374042 4.03039555 1 3 C0.67 2.01 0.34 1.02 0 0 Z M1 4 C4 5 4 5 4 5 Z " fill="#6BCAF6" transform="translate(223,336)"/>
<path d="M0 0 C0.33 0.99 0.66 1.98 1 3 C1.66 3.33 2.32 3.66 3 4 C3.33 4.99 3.66 5.98 4 7 C3.01 7.495 3.01 7.495 2 8 C0.02 6.68 -1.96 5.36 -4 4 C-3.01 3.34 -2.02 2.68 -1 2 C-0.67 1.34 -0.34 0.68 0 0 Z " fill="#B698F0" transform="translate(300,169)"/>
<path d="M0 0 C1.9375 0.5625 1.9375 0.5625 4 2 C4.40729228 4.32156597 4.74438677 6.6568787 5 9 C5.66 9.33 6.32 9.66 7 10 C6.34 10.66 5.68 11.32 5 12 C4.16180842 10.37750059 3.3295884 8.75191503 2.5 7.125 C2.0359375 6.22007812 1.571875 5.31515625 1.09375 4.3828125 C0 2 0 2 0 0 Z " fill="#BDA8EC" transform="translate(326,203)"/>
<path d="M0 0 C0.99 0.33 1.98 0.66 3 1 C1.54744301 4.82946843 -0.42895561 6.12050295 -4 8 C-4.66 7.01 -5.32 6.02 -6 5 C-3.35261084 3.5393715 -2.10551666 3 1 3 C0.67 2.01 0.34 1.02 0 0 Z " fill="#BAA2E5" transform="translate(191,178)"/>
<path d="M0 0 C0 3 0 3 -1.75 5.25 C-2.86375 6.11625 -2.86375 6.11625 -4 7 C-5.32 6.67 -6.64 6.34 -8 6 C-5.36 4.02 -2.72 2.04 0 0 Z " fill="#78CCF2" transform="translate(306,319)"/>
<path d="M0 0 C1.32 0 2.64 0 4 0 C5.0625 1.8125 5.0625 1.8125 6 4 C5.67 4.99 5.34 5.98 5 7 C3.29115995 5.37660195 1.62553283 3.70680947 0 2 C0 1.34 0 0.68 0 0 Z " fill="#B89FE9" transform="translate(174,171)"/>
<path d="M0 0 C1.875 0.1875 1.875 0.1875 4 1 C5.25 3.5625 5.25 3.5625 6 6 C3.5625 5.25 3.5625 5.25 1 4 C0.1875 1.875 0.1875 1.875 0 0 Z " fill="#B397E5" transform="translate(159,155)"/>
<path d="M0 0 C2.475 0.495 2.475 0.495 5 1 C5 2.32 5 3.64 5 5 C5.66 5.33 6.32 5.66 7 6 C6.34 6.66 5.68 7.32 5 8 C2.525 4.04 2.525 4.04 0 0 Z " fill="#BDA4EC" transform="translate(319,193)"/>
<path d="M0 0 C0.66 0.33 1.32 0.66 2 1 C0.875 2.9375 0.875 2.9375 -1 5 C-4.1875 5.75 -4.1875 5.75 -7 6 C-4.74259377 3.66475218 -2.7194239 1.81294927 0 0 Z " fill="#CBB6F1" transform="translate(180,138)"/>
<path d="M0 0 C1.67542976 0.28604898 3.34385343 0.61781233 5 1 C3.35 2.32 1.7 3.64 0 5 C-0.5625 3.0625 -0.5625 3.0625 -1 1 C-0.67 0.67 -0.34 0.34 0 0 Z " fill="#63C6F5" transform="translate(325,353)"/>
<path d="M0 0 C3.875 1.75 3.875 1.75 5 4 C2 4 -1 4 -4 4 C-2.68 2.68 -1.36 1.36 0 0 Z " fill="#82CBEF" transform="translate(311,314)"/>
<path d="M0 0 C3.96 0 7.92 0 12 0 C12 0.99 12 1.98 12 3 C10.56163249 2.88541307 9.12429034 2.75790884 7.6875 2.625 C6.88699219 2.55539063 6.08648437 2.48578125 5.26171875 2.4140625 C3 2 3 2 0 0 Z " fill="#AA8AE8" transform="translate(279,124)"/>
<path d="M0 0 C1.98 1.65 3.96 3.3 6 5 C5.01 5.33 4.02 5.66 3 6 C2.01 5.34 1.02 4.68 0 4 C0 2.68 0 1.36 0 0 Z " fill="#71C9F1" transform="translate(316,318)"/>
<path d="M0 0 C2.6855594 2.6855594 3.06049974 5.37621328 4 9 C3.34 9 2.68 9 2 9 C-0.29013653 5.5647952 -0.17842973 4.014669 0 0 Z " fill="#72C9ED" transform="translate(168,285)"/>
</svg>
